<svg xmlns="http://www.w3.org/2000/svg" width="512mm" height="512mm" viewBox="0 0 512 512"><text style="line-height:0;-inkscape-font-specification:sans-serif" x="26.357" y="189.37" transform="matrix(3.3484 0 0 4.11097 -130.377 -92.416)" font-weight="400" font-size="140.495" font-family="sans-serif" letter-spacing="0" word-spacing="0" stroke-width="3.512"/><path fill="#25536d" d="M.002 0h512v512h-512z"/><g style="line-height:1.25;-inkscape-font-specification:Corbel" aria-label="ts" font-weight="400" font-size="109.852" font-family="Corbel" letter-spacing="0" word-spacing="0" fill="#fff" stroke-width=".275"><path style="-inkscape-font-specification:Corbel" d="M284.182 439.735q-3.98 1.592-12.14 2.985-8.159 1.393-19.502 1.592-14.926 0-25.871-3.781-10.945-3.582-18.309-10.349-7.164-6.965-10.746-16.716-3.582-9.752-3.582-21.692V276.747h-36.419V250.28h36.419v-51.742h30.846v51.742h56.518v26.468h-56.518v110.25q0 6.568 1.791 12.14 1.99 5.572 5.97 9.751 4.18 3.98 10.548 6.369 6.368 2.189 15.323 2.189 6.17 0 12.936-.995 6.965-.995 12.736-2.587zM346.074 300.628q0 7.762 3.383 12.737 3.383 4.975 8.955 8.159 5.771 2.985 13.135 4.975 7.562 1.99 15.522 3.582 10.946 2.388 20.697 5.374 9.751 2.786 17.91 8.557 8.36 5.771 13.334 15.722 5.175 9.75 5.175 25.473 0 14.328-5.573 25.473-5.572 10.945-15.721 18.507-10.15 7.364-24.28 11.145-14.129 3.98-31.044 3.98-10.349 0-18.906-1.194-8.359-.995-14.926-2.786-6.368-1.592-10.945-3.383t-7.563-3.384v-25.87q11.94 4.776 23.682 7.562 11.742 2.786 25.871 2.786 11.145 0 20.1-1.99 8.956-1.99 15.324-5.771 6.567-3.98 9.95-9.752 3.582-5.97 3.582-13.731 0-7.96-3.184-13.135-3.184-5.174-8.557-8.557t-12.538-5.572q-6.965-2.19-14.726-3.98-10.15-2.19-20.697-5.175-10.348-2.985-18.906-8.358-8.557-5.373-13.93-14.528-5.175-9.353-5.175-23.88 0-14.926 5.374-25.872 5.373-10.945 14.527-18.11 9.155-7.164 21.294-10.746 12.14-3.582 25.672-3.582 15.722 0 29.055 2.985 13.533 2.985 24.478 7.562v26.27q-11.94-4.578-24.279-7.364-12.14-2.985-25.075-3.184-10.945 0-18.706 2.19-7.762 2.188-12.737 6.168-4.975 3.782-7.363 9.155-2.19 5.174-2.19 11.542z"/></g></svg>