<?xml version="1.0" encoding="UTF-8" standalone="no"?>
<!-- Created with Inkscape (http://www.inkscape.org/) -->

<svg
   xmlns:dc="http://purl.org/dc/elements/1.1/"
   xmlns:cc="http://creativecommons.org/ns#"
   xmlns:rdf="http://www.w3.org/1999/02/22-rdf-syntax-ns#"
   xmlns:svg="http://www.w3.org/2000/svg"
   xmlns="http://www.w3.org/2000/svg"
   xmlns:sodipodi="http://sodipodi.sourceforge.net/DTD/sodipodi-0.dtd"
   xmlns:inkscape="http://www.inkscape.org/namespaces/inkscape"
   width="512mm"
   height="512mm"
   viewBox="0 0 512 512"
   version="1.1"
   id="svg8"
   sodipodi:docname="logo.svg"
   inkscape:version="0.92.3 (2405546, 2018-03-11)">
  <defs
     id="defs2" />
  <sodipodi:namedview
     id="base"
     pagecolor="#ffffff"
     bordercolor="#666666"
     borderopacity="1.0"
     inkscape:pageopacity="0.0"
     inkscape:pageshadow="2"
     inkscape:zoom="0.25"
     inkscape:cx="151.04184"
     inkscape:cy="803.45499"
     inkscape:document-units="mm"
     inkscape:current-layer="g4665"
     showgrid="false"
     showguides="true"
     inkscape:guide-bbox="true"
     inkscape:window-width="1920"
     inkscape:window-height="1017"
     inkscape:window-x="-8"
     inkscape:window-y="-8"
     inkscape:window-maximized="1">
    <sodipodi:guide
       position="65.013312,57.342673"
       orientation="1,0"
       id="guide4672"
       inkscape:locked="false" />
    <sodipodi:guide
       position="55.47179,9.9156977"
       orientation="0,1"
       id="guide4674"
       inkscape:locked="false" />
  </sodipodi:namedview>
  <metadata
     id="metadata5">
    <rdf:RDF>
      <cc:Work
         rdf:about="">
        <dc:format>image/svg+xml</dc:format>
        <dc:type
           rdf:resource="http://purl.org/dc/dcmitype/StillImage" />
      </cc:Work>
    </rdf:RDF>
  </metadata>
  <g
     inkscape:label="Layer 1"
     inkscape:groupmode="layer"
     id="layer1"
     transform="translate(-35.140571,349.09112)">
    <g
       id="g4665"
       transform="matrix(0.54347826,0,0,0.54347826,16.042435,74.371448)">
      <g
         id="g4682"
         transform="matrix(6.8266667,0,0,6.8266667,-204.7524,-949.21575)">
        <text
           xml:space="preserve"
           style="font-style:normal;font-variant:normal;font-weight:normal;font-stretch:normal;font-size:140.49481201px;line-height:0;font-family:sans-serif;-inkscape-font-specification:sans-serif;letter-spacing:0px;word-spacing:0px;fill:#000000;fill-opacity:1;stroke:none;stroke-width:3.51237035"
           x="26.356796"
           y="189.36975"
           id="text4546"
           transform="scale(0.90249902,1.1080344)"><tspan
             sodipodi:role="line"
             id="tspan4544"
             x="26.356796"
             y="229.73817"
             style="font-style:normal;font-variant:normal;font-weight:normal;font-stretch:normal;font-size:25.39999962px;line-height:0px;font-family:sans-serif;-inkscape-font-specification:sans-serif;stroke-width:3.51237035" /></text>
        <rect
           style="fill:#25536d;fill-opacity:1;stroke:none;stroke-width:0.2;stroke-linecap:butt;stroke-linejoin:miter;stroke-miterlimit:4;stroke-dasharray:none;stroke-opacity:1"
           id="rect4654"
           width="138"
           height="138"
           x="35.140572"
           y="24.90888" />
        <g
           transform="translate(0,-7.7893335)"
           id="text4658"
           style="font-style:normal;font-variant:normal;font-weight:normal;font-stretch:normal;font-size:109.85231018px;line-height:1.25;font-family:Corbel;-inkscape-font-specification:Corbel;letter-spacing:0px;word-spacing:0px;fill:#ffffff;fill-opacity:1;stroke:none;stroke-width:0.27463132"
           aria-label="ts">
          <path
             inkscape:connector-curvature="0"
             id="path4667"
             style="font-style:normal;font-variant:normal;font-weight:normal;font-stretch:normal;font-size:109.85231018px;font-family:Corbel;-inkscape-font-specification:Corbel;fill:#ffffff;fill-opacity:1;stroke-width:0.27463132"
             d="m 111.73657,151.22045 q -1.07278,0.42911 -3.27197,0.80458 -2.19919,0.37548 -5.2566,0.42912 -4.022915,0 -6.97305,-1.01914 -2.950136,-0.9655 -4.934772,-2.78922 -1.930998,-1.87736 -2.896497,-4.50566 -0.965498,-2.6283 -0.965498,-5.84663 v -31.00324 h -9.815905 v -7.13397 h 9.815905 V 86.210198 H 95.7522 v 13.946092 h 15.23343 v 7.13397 H 95.7522 v 29.7159 q 0,1.77009 0.48275,3.27197 0.536388,1.50189 1.609164,2.6283 1.126416,1.07278 2.842856,1.71645 1.71644,0.59002 4.13019,0.59002 1.6628,0 3.48652,-0.26819 1.87736,-0.26819 3.43289,-0.6973 z" />
          <path
             inkscape:connector-curvature="0"
             id="path4669"
             style="font-style:normal;font-variant:normal;font-weight:normal;font-stretch:normal;font-size:109.85231018px;font-family:Corbel;-inkscape-font-specification:Corbel;fill:#ffffff;fill-opacity:1;stroke-width:0.27463132"
             d="m 128.41824,113.72691 q 0,2.09192 0.91186,3.43289 0.91186,1.34097 2.41375,2.19919 1.55553,0.80458 3.54016,1.34097 2.03828,0.53639 4.18383,0.9655 2.95014,0.64367 5.57844,1.44825 2.6283,0.75094 4.82749,2.30647 2.25283,1.55552 3.5938,4.23747 1.39461,2.6283 1.39461,6.86576 0,3.862 -1.50188,6.86577 -1.50189,2.95014 -4.23747,4.98841 -2.73558,1.98464 -6.54394,3.00378 -3.80835,1.07278 -8.36765,1.07278 -2.78922,0 -5.09569,-0.32184 -2.25283,-0.26819 -4.02291,-0.75094 -1.71645,-0.42911 -2.95014,-0.91186 -1.23369,-0.48275 -2.03827,-0.91186 v -6.97305 q 3.21832,1.28733 6.38302,2.03828 3.16469,0.75094 6.97304,0.75094 3.00378,0 5.41752,-0.53639 2.41375,-0.53639 4.13019,-1.55552 1.77008,-1.07278 2.68194,-2.62831 0.9655,-1.60916 0.9655,-3.70107 0,-2.14556 -0.85822,-3.54017 -0.85822,-1.39461 -2.30647,-2.30647 -1.44825,-0.91186 -3.37924,-1.50188 -1.87736,-0.59003 -3.96928,-1.07278 -2.73558,-0.59003 -5.57843,-1.39461 -2.78922,-0.80458 -5.09569,-2.25283 -2.30647,-1.44825 -3.75472,-3.91563 -1.39461,-2.52103 -1.39461,-6.43666 0,-4.02291 1.44825,-6.97305 1.44825,-2.95014 3.91563,-4.88113 2.46739,-1.931 5.73936,-2.896499 3.27197,-0.965499 6.91941,-0.965499 4.23746,0 7.83126,0.804582 3.64744,0.804586 6.59758,2.038276 v 7.08032 q -3.21833,-1.23369 -6.54394,-1.98463 -3.27197,-0.80458 -6.75849,-0.85822 -2.95013,0 -5.04205,0.59002 -2.09191,0.59003 -3.43288,1.66281 -1.34097,1.01913 -1.98464,2.46738 -0.59003,1.39461 -0.59003,3.11105 z" />
        </g>
      </g>
    </g>
  </g>
</svg>
